<?xml version="1.0" encoding="UTF-8" standalone="no"?>
<svg
   xmlns:dc="http://purl.org/dc/elements/1.1/"
   xmlns:cc="http://creativecommons.org/ns#"
   xmlns:rdf="http://www.w3.org/1999/02/22-rdf-syntax-ns#"
   xmlns:svg="http://www.w3.org/2000/svg"
   xmlns="http://www.w3.org/2000/svg"
   xmlns:sodipodi="http://sodipodi.sourceforge.net/DTD/sodipodi-0.dtd"
   xmlns:inkscape="http://www.inkscape.org/namespaces/inkscape"
   version="1.2"
   width="570"
   height="125"
   viewBox="0 0 570 125"
   stroke-linecap="butt"
   stroke-linejoin="round"
   id="svg210"
   sodipodi:docname="dataviz-key_2020.svg"
   inkscape:version="1.0.2 (e86c8708, 2021-01-15)">
  <metadata
     id="metadata216">
    <rdf:RDF>
      <cc:Work
         rdf:about="">
        <dc:format>image/svg+xml</dc:format>
        <dc:type
           rdf:resource="http://purl.org/dc/dcmitype/StillImage" />
        <dc:title />
      </cc:Work>
    </rdf:RDF>
  </metadata>
  <defs
     id="defs214" />
  <sodipodi:namedview
     pagecolor="#ffffff"
     bordercolor="#666666"
     borderopacity="1"
     objecttolerance="10"
     gridtolerance="10"
     guidetolerance="10"
     inkscape:pageopacity="0"
     inkscape:pageshadow="2"
     inkscape:window-width="1054"
     inkscape:window-height="774"
     id="namedview212"
     showgrid="false"
     inkscape:zoom="1.3789999"
     inkscape:cx="272.52283"
     inkscape:cy="82.1014"
     inkscape:window-x="297"
     inkscape:window-y="232"
     inkscape:window-maximized="0"
     inkscape:current-layer="layer9"
     inkscape:document-rotation="0" />
  <style
     id="style10">
  path {shape-rendering: crispEdges;}
</style>
  <g
     id="layer6"
     transform="matrix(0.99496412,0,0,1,27.014163,2.2)">
    <path
       d="m 1,90.64 v -3.76 h 4.98 v 3.76 z"
       fill="#dddddd"
       id="path12" />
    <path
       d="m 5.98,90.64 v -4.29 h 4.98 v 4.29 z"
       fill="#dddddd"
       id="path14" />
    <path
       d="m 10.96,90.64 v -5.9 h 4.98 v 5.9 z"
       fill="#dddddd"
       id="path16" />
    <path
       d="m 15.94,90.64 v -8.59 h 4.98 v 8.59 z"
       fill="#dddddd"
       id="path18" />
    <path
       d="M 20.92,90.64 V 78.29 h 4.98 v 12.35 z"
       fill="#dddddd"
       id="path20" />
    <path
       d="M 25.9,90.64 V 72.39 h 4.98 v 18.25 z"
       fill="#dddddd"
       id="path22" />
    <path
       d="M 30.88,90.64 V 79.9 h 4.98 v 10.74 z"
       fill="#dddddd"
       id="path24" />
    <path
       d="M 35.86,90.64 V 76.68 h 4.98 v 13.96 z"
       fill="#dddddd"
       id="path26" />
    <path
       d="M 40.84,90.64 V 66.49 h 4.98 v 24.15 z"
       fill="#dddddd"
       id="path28" />
    <path
       d="M 45.82,90.64 V 67.02 h 4.98 v 23.62 z"
       fill="#dddddd"
       id="path30" />
    <path
       d="M 50.8,90.64 V 63.26 h 4.98 v 27.38 z"
       fill="#dddddd"
       id="path32" />
    <path
       d="M 55.78,90.64 V 61.12 h 4.98 v 29.52 z"
       fill="#dddddd"
       id="path34" />
    <path
       d="M 60.76,90.64 V 41.26 h 4.98 v 49.38 z"
       fill="#dddddd"
       id="path36" />
    <path
       d="m 65.74,90.64 v -42.4 h 4.98 v 42.4 z"
       fill="#dddddd"
       id="path38" />
    <path
       d="m 70.72,90.64 v -46.7 h 4.98 v 46.7 z"
       fill="#dddddd"
       id="path40" />
    <path
       d="M 75.7,90.64 V 39.11 h 4.98 v 51.53 z"
       fill="#dddddd"
       id="path42" />
    <path
       d="M 80.68,90.64 V 33.21 h 4.98 v 57.43 z"
       fill="#dddddd"
       id="path44" />
    <path
       d="M 85.66,90.64 V 19.79 h 4.98 v 70.85 z"
       fill="#dddddd"
       id="path46" />
    <path
       d="M 90.64,90.64 V 29.45 h 4.98 v 61.19 z"
       fill="#dddddd"
       id="path48" />
    <path
       d="M 95.62,90.64 V 34.28 h 4.98 v 56.36 z"
       fill="#dddddd"
       id="path50" />
    <path
       d="M 100.6,90.64 V 25.69 h 4.98 v 64.95 z"
       fill="#dddddd"
       id="path52" />
    <path
       d="M 105.58,90.64 V 26.23 h 4.98 v 64.41 z"
       fill="#dddddd"
       id="path54" />
    <path
       d="M 110.56,90.64 V 25.15 h 4.98 v 65.49 z"
       fill="#dddddd"
       id="path56" />
    <path
       d="M 115.54,90.64 V 23.01 h 4.98 v 67.63 z"
       fill="#dddddd"
       id="path58" />
    <path
       d="M 120.52,90.64 V 31.6 h 4.98 v 59.04 z"
       fill="#dddddd"
       id="path60" />
    <path
       d="M 125.5,90.64 V 1 h 4.98 v 89.64 z"
       fill="#dddddd"
       id="path62" />
    <path
       d="M 130.48,90.64 V 34.28 h 4.98 v 56.36 z"
       fill="#dddddd"
       id="path64" />
    <path
       d="M 135.46,90.64 V 38.57 h 4.98 v 52.07 z"
       fill="#dddddd"
       id="path66" />
    <path
       d="M 140.44,90.64 V 43.4 h 4.98 v 47.24 z"
       fill="#dddddd"
       id="path68" />
    <path
       d="M 145.42,90.64 V 34.82 h 4.98 v 55.82 z"
       fill="#dddddd"
       id="path70" />
    <path
       d="M 150.4,90.64 V 38.57 h 4.98 v 52.07 z"
       fill="#dddddd"
       id="path72" />
    <path
       d="M 155.38,90.64 V 43.4 h 4.98 v 47.24 z"
       fill="#dddddd"
       id="path74" />
    <path
       d="M 160.36,90.64 V 53.6 h 4.98 v 37.04 z"
       fill="#dddddd"
       id="path76" />
    <path
       d="M 165.34,90.64 V 53.6 h 4.98 v 37.04 z"
       fill="#dddddd"
       id="path78" />
    <path
       d="M 170.32,90.64 V 58.97 h 4.98 v 31.67 z"
       fill="#dddddd"
       id="path80" />
    <path
       d="M 175.3,90.64 V 67.56 h 4.98 v 23.08 z"
       fill="#dddddd"
       id="path82" />
    <path
       d="M 180.28,90.64 V 65.95 h 4.98 v 24.69 z"
       fill="#dddddd"
       id="path84" />
    <path
       d="M 185.26,90.64 V 51.99 h 4.98 v 38.65 z"
       fill="#dddddd"
       id="path86" />
    <path
       d="M 190.24,90.64 V 68.63 h 4.98 v 22.01 z"
       fill="#dddddd"
       id="path88" />
    <path
       d="M 195.22,90.64 V 79.37 h 4.98 v 11.27 z"
       fill="#dddddd"
       id="path90" />
    <path
       d="M 200.2,90.64 V 75.07 h 4.98 v 15.57 z"
       fill="#dddddd"
       id="path92" />
    <path
       d="M 205.18,90.64 V 78.29 h 4.98 v 12.35 z"
       fill="#dddddd"
       id="path94" />
    <path
       d="m 210.16,90.64 v -10.2 h 4.98 v 10.2 z"
       fill="#dddddd"
       id="path96" />
    <path
       d="m 215.14,90.64 v -9.12 h 4.98 v 9.12 z"
       fill="#dddddd"
       id="path98" />
    <path
       d="M 220.12,90.64 V 79.9 h 4.98 v 10.74 z"
       fill="#dddddd"
       id="path100" />
    <path
       d="m 225.1,90.64 v -7.51 h 4.98 v 7.51 z"
       fill="#dddddd"
       id="path102" />
    <path
       d="m 230.08,90.64 v -4.83 h 4.98 v 4.83 z"
       fill="#dddddd"
       id="path104" />
    <path
       d="m 235.06,90.64 v -5.9 h 4.98 v 5.9 z"
       fill="#dddddd"
       id="path106" />
    <path
       d="m 240.04,90.64 v -3.76 h 4.98 v 3.76 z"
       fill="#dddddd"
       id="path108" />
    <path
       d="M 245.02,90.64 V 85.81 H 250 v 4.83 z"
       fill="#dddddd"
       id="path110" />
    <path
       d="m 250,90.64 v -3.76 h 4.98 v 3.76 z"
       fill="#dddddd"
       id="path112" />
    <path
       d="m 254.98,90.64 v -5.9 h 4.98 v 5.9 z"
       fill="#dddddd"
       id="path114" />
    <path
       d="m 259.96,90.64 v -1.61 h 4.98 v 1.61 z"
       fill="#dddddd"
       id="path116" />
    <path
       d="m 264.94,90.64 v -1.61 h 4.98 v 1.61 z"
       fill="#dddddd"
       id="path118" />
    <path
       d="m 269.92,90.64 v -1.61 h 4.98 v 1.61 z"
       fill="#dddddd"
       id="path120" />
    <path
       d="m 274.9,90.64 v -1.07 h 4.98 v 1.07 z"
       fill="#dddddd"
       id="path122" />
    <path
       d="m 279.88,90.64 v -2.68 h 4.98 v 2.68 z"
       fill="#dddddd"
       id="path124" />
    <path
       d="M 284.86,90.64 V 90.1 h 4.98 v 0.54 z"
       fill="#dddddd"
       id="path126" />
    <path
       d="m 289.84,90.64 v -1.61 h 4.98 v 1.61 z"
       fill="#dddddd"
       id="path128" />
    <path
       d="M 294.82,90.64 V 90.1 h 4.98 v 0.54 z"
       fill="#dddddd"
       id="path130" />
    <path
       d="M 299.8,90.64 V 90.1 h 4.98 v 0.54 z"
       fill="#dddddd"
       id="path132" />
    <path
       d="M 304.78,90.64 V 90.1 h 4.98 v 0.54 z"
       fill="#dddddd"
       id="path134" />
    <path
       d="m 309.76,90.64 v -2.68 h 4.98 v 2.68 z"
       fill="#dddddd"
       id="path136" />
    <path
       d="m 314.74,90.64 v -1.07 h 4.98 v 1.07 z"
       fill="#dddddd"
       id="path138" />
    <path
       d="M 324.7,90.64 V 90.1 h 4.98 v 0.54 z"
       fill="#dddddd"
       id="path140" />
    <path
       d="M 329.68,90.64 V 90.1 h 4.98 v 0.54 z"
       fill="#dddddd"
       id="path142" />
    <path
       d="M 334.66,90.64 V 90.1 h 4.98 v 0.54 z"
       fill="#dddddd"
       id="path144" />
    <path
       d="m 339.64,90.64 v -1.61 h 4.98 v 1.61 z"
       fill="#dddddd"
       id="path146" />
    <path
       d="m 344.62,90.64 v -2.15 h 4.98 v 2.15 z"
       fill="#dddddd"
       id="path148" />
    <path
       d="M 369.52,90.64 V 90.1 h 4.98 v 0.54 z"
       fill="#dddddd"
       id="path150" />
    <path
       d="M 374.5,90.64 V 90.1 h 4.98 v 0.54 z"
       fill="#dddddd"
       id="path152" />
    <path
       d="m 384.46,90.64 v -1.07 h 4.98 v 1.07 z"
       fill="#dddddd"
       id="path154" />
    <path
       d="M 399.4,90.64 V 90.1 h 4.98 v 0.54 z"
       fill="#dddddd"
       id="path156" />
    <path
       d="M 424.3,90.64 V 90.1 h 4.98 v 0.54 z"
       fill="#dddddd"
       id="path158" />
    <path
       d="M 474.1,90.64 V 90.1 h 4.98 v 0.54 z"
       fill="#dddddd"
       id="path160" />
    <path
       d="M 494.02,90.64 V 90.1 H 499 v 0.54 z"
       fill="#dddddd"
       id="path162" />
  </g>
  <g
     id="layer7"
     transform="matrix(0.99496412,0,0,1,27.014163,2.2)">
    <path
       d="m 1,100.6 v -9.96 h 7.18 v 9.96 z"
       fill="#f2f0f7"
       id="path165" />
    <path
       d="m 8.18,100.6 v -9.96 h 47.89 v 9.96 z"
       fill="#dadaeb"
       id="path167" />
    <path
       d="m 56.07,100.6 v -9.96 h 47.88 v 9.96 z"
       fill="#bcbddc"
       id="path169" />
    <path
       d="m 103.95,100.6 v -9.96 h 47.89 v 9.96 z"
       fill="#9e9ac8"
       id="path171" />
    <path
       d="m 151.84,100.6 v -9.96 h 47.88 v 9.96 z"
       fill="#756bb1"
       id="path173" />
    <path
       d="M 199.72,100.6 V 90.64 H 499 v 9.96 z"
       fill="#54278f"
       id="path175" />
    <g
       id="g177" />
  </g>
  <g
     id="layer8"
     fill="none"
     stroke="#000000"
     stroke-width="1"
     transform="matrix(0.99496412,0,0,1,27.014163,2.2)">
    <path
       d="m 8.18,90.64 v 15.94001"
       stroke="rgba(0,0,0,0.3)"
       id="path180-1"
       style="shape-rendering:crispEdges" />
    <path
       d="m 1,90.64 v 15.94"
       stroke="rgba(0,0,0,0.3)"
       id="path180" />
    <path
       d="m 56.07,90.64 v 15.94"
       stroke="rgba(0,0,0,0.3)"
       id="path184" />
    <path
       d="m 103.95,90.64 v 15.94"
       stroke="rgba(0,0,0,0.3)"
       id="path186" />
    <path
       d="m 151.84,90.64 v 15.94"
       stroke="rgba(0,0,0,0.3)"
       id="path188" />
    <path
       d="m 199.72,90.64 v 15.94"
       stroke="rgba(0,0,0,0.3)"
       id="path190" />
    <path
       d="m 499,90.64 v 15.94"
       stroke="rgba(0,0,0,0.3)"
       id="path192" />
  </g>
  <g
     id="layer9"
     font-family="sans-serif"
     font-size="12px"
     text-anchor="middle">
    <text
       y="130.23793"
       x="20.417959"
       font-family="sans-serif"
       font-size="13.9812px"
       text-anchor="start"
       fill="#555555"
       id="text195"
       transform="scale(1.0754716,0.92982468)"
       style="word-spacing:0px;stroke-width:1.07547">1</text>
    <text
       y="120.79312"
       x="36.534973"
       font-family="sans-serif"
       font-size="12.9672px"
       text-anchor="middle"
       fill="#555555"
       id="text197"
       transform="scale(0.99747888,1.0025275)"
       style="stroke-width:0.997479">2</text>
    <text
       y="121.51647"
       x="83.008385"
       font-family="sans-serif"
       font-size="12.9672px"
       text-anchor="middle"
       fill="#555555"
       id="text199"
       transform="scale(0.99747888,1.0025275)"
       style="stroke-width:0.997479">4</text>
    <text
       y="121.51647"
       x="130.77228"
       font-family="sans-serif"
       font-size="12.9672px"
       text-anchor="middle"
       fill="#555555"
       id="text201"
       transform="scale(0.99747888,1.0025275)"
       style="stroke-width:0.997479">6</text>
    <text
       y="121.51647"
       x="178.53615"
       font-family="sans-serif"
       font-size="12.9672px"
       text-anchor="middle"
       fill="#555555"
       id="text203"
       transform="scale(0.99747888,1.0025275)"
       style="stroke-width:0.997479">8</text>
    <text
       y="121.51647"
       x="226.30013"
       font-family="sans-serif"
       font-size="12.9672px"
       text-anchor="middle"
       fill="#555555"
       id="text205"
       transform="scale(0.99747888,1.0025275)"
       style="stroke-width:0.997479">10</text>
    <text
       y="121.51647"
       x="524.8244"
       font-family="sans-serif"
       font-size="12.9672px"
       text-anchor="end"
       fill="#555555"
       id="text207"
       transform="scale(0.99747888,1.0025275)"
       style="stroke-width:0.997479">22.5</text>
    <text
       xml:space="preserve"
       style="font-weight:bold;font-size:17.2896px;line-height:1.25;font-family:Helvetica;-inkscape-font-specification:'Helvetica Bold';letter-spacing:0px;word-spacing:0px;stroke-width:0.997479"
       x="407.55664"
       y="31.127851"
       id="text240"
       transform="scale(0.99747888,1.0025275)"><tspan
         sodipodi:role="line"
         id="tspan238"
         x="409.95422"
         y="31.127851"
         style="font-style:normal;font-variant:normal;font-weight:normal;font-stretch:normal;font-family:Arial;-inkscape-font-specification:Arial;stroke-width:0.997479">Unimployment Rate(%), 2020 </tspan></text>
  </g>
</svg>
