<?xml version="1.0" encoding="UTF-8" standalone="no"?>
<svg
   xmlns:dc="http://purl.org/dc/elements/1.1/"
   xmlns:cc="http://creativecommons.org/ns#"
   xmlns:rdf="http://www.w3.org/1999/02/22-rdf-syntax-ns#"
   xmlns:svg="http://www.w3.org/2000/svg"
   xmlns="http://www.w3.org/2000/svg"
   xmlns:sodipodi="http://sodipodi.sourceforge.net/DTD/sodipodi-0.dtd"
   xmlns:inkscape="http://www.inkscape.org/namespaces/inkscape"
   version="1.2"
   width="570"
   height="125"
   viewBox="0 0 570 125"
   stroke-linecap="butt"
   stroke-linejoin="round"
   id="svg470"
   sodipodi:docname="dataviz-key_unemploy.svg"
   inkscape:version="1.0.2 (e86c8708, 2021-01-15)">
  <metadata
     id="metadata476">
    <rdf:RDF>
      <cc:Work
         rdf:about="">
        <dc:format>image/svg+xml</dc:format>
        <dc:type
           rdf:resource="http://purl.org/dc/dcmitype/StillImage" />
        <dc:title></dc:title>
      </cc:Work>
    </rdf:RDF>
  </metadata>
  <defs
     id="defs474" />
  <sodipodi:namedview
     pagecolor="#ffffff"
     bordercolor="#666666"
     borderopacity="1"
     objecttolerance="10"
     gridtolerance="10"
     guidetolerance="10"
     inkscape:pageopacity="0"
     inkscape:pageshadow="2"
     inkscape:window-width="1002"
     inkscape:window-height="680"
     id="namedview472"
     showgrid="false"
     inkscape:zoom="1.3645125"
     inkscape:cx="312.26929"
     inkscape:cy="78.45955"
     inkscape:window-x="129"
     inkscape:window-y="97"
     inkscape:window-maximized="0"
     inkscape:current-layer="layer8"
     inkscape:document-rotation="0" />
  <style
     id="style242">
  path {shape-rendering: crispEdges;}
</style>
  <g
     id="layer5"
     transform="matrix(0.99816338,0,0,1,25.916474,2.2)">
    <path
       d="m 2.86,90.31 v -2.73 h 4.96 v 2.73 z"
       fill="#dddddd"
       id="path244" />
    <path
       d="m 7.82,90.31 v -2.05 h 4.96 v 2.05 z"
       fill="#dddddd"
       id="path246" />
    <path
       d="m 12.78,90.31 v -6.82 h 4.96 v 6.82 z"
       fill="#dddddd"
       id="path248" />
    <path
       d="m 17.74,90.31 v -6.82 h 4.96 v 6.82 z"
       fill="#dddddd"
       id="path250" />
    <path
       d="M 22.7,90.31 V 80.08 h 4.97 v 10.23 z"
       fill="#dddddd"
       id="path252" />
    <path
       d="M 27.67,90.31 V 60.99 h 4.96 v 29.32 z"
       fill="#dddddd"
       id="path254" />
    <path
       d="M 32.63,90.31 V 71.22 h 4.96 v 19.09 z"
       fill="#dddddd"
       id="path256" />
    <path
       d="M 37.59,90.31 V 62.35 h 4.96 v 27.96 z"
       fill="#dddddd"
       id="path258" />
    <path
       d="M 42.55,90.31 V 62.35 h 4.96 v 27.96 z"
       fill="#dddddd"
       id="path260" />
    <path
       d="M 47.51,90.31 V 69.17 h 4.96 v 21.14 z"
       fill="#dddddd"
       id="path262" />
    <path
       d="M 52.47,90.31 V 58.95 h 4.96 v 31.36 z"
       fill="#dddddd"
       id="path264" />
    <path
       d="M 57.43,90.31 V 55.54 h 4.97 v 34.77 z"
       fill="#dddddd"
       id="path266" />
    <path
       d="m 62.4,90.31 v -22.5 h 4.96 v 22.5 z"
       fill="#dddddd"
       id="path268" />
    <path
       d="M 67.36,90.31 V 54.86 h 4.96 v 35.45 z"
       fill="#dddddd"
       id="path270" />
    <path
       d="M 72.32,90.31 V 38.49 h 4.96 v 51.82 z"
       fill="#dddddd"
       id="path272" />
    <path
       d="M 77.28,90.31 V 56.9 h 4.96 v 33.41 z"
       fill="#dddddd"
       id="path274" />
    <path
       d="M 82.24,90.31 V 50.08 h 4.96 v 40.23 z"
       fill="#dddddd"
       id="path276" />
    <path
       d="M 87.2,90.31 V 21.45 h 4.96 v 68.86 z"
       fill="#dddddd"
       id="path278" />
    <path
       d="M 92.16,90.31 V 44.63 h 4.97 v 45.68 z"
       fill="#dddddd"
       id="path280" />
    <path
       d="M 97.13,90.31 V 12.59 h 4.96 v 77.72 z"
       fill="#dddddd"
       id="path282" />
    <path
       d="M 102.09,90.31 V 23.5 h 4.96 v 66.81 z"
       fill="#dddddd"
       id="path284" />
    <path
       d="m 107.05,90.31 v -52.5 h 4.96 v 52.5 z"
       fill="#dddddd"
       id="path286" />
    <path
       d="M 112.01,90.31 V 13.95 h 4.96 v 76.36 z"
       fill="#dddddd"
       id="path288" />
    <path
       d="M 116.97,90.31 V 1.68 h 4.96 v 88.63 z"
       fill="#dddddd"
       id="path290" />
    <path
       d="M 121.93,90.31 V 36.45 h 4.96 v 53.86 z"
       fill="#dddddd"
       id="path292" />
    <path
       d="M 126.89,90.31 V 2.36 h 4.97 v 87.95 z"
       fill="#dddddd"
       id="path294" />
    <path
       d="M 131.86,90.31 V 7.82 h 4.96 v 82.49 z"
       fill="#dddddd"
       id="path296" />
    <path
       d="m 136.82,90.31 v -45 h 4.96 v 45 z"
       fill="#dddddd"
       id="path298" />
    <path
       d="M 141.78,90.31 V 1 h 4.96 v 89.31 z"
       fill="#dddddd"
       id="path300" />
    <path
       d="M 146.74,90.31 V 4.41 h 4.96 v 85.9 z"
       fill="#dddddd"
       id="path302" />
    <path
       d="M 151.7,90.31 V 39.86 h 4.96 v 50.45 z"
       fill="#dddddd"
       id="path304" />
    <path
       d="M 156.66,90.31 V 13.27 h 4.96 v 77.04 z"
       fill="#dddddd"
       id="path306" />
    <path
       d="M 161.62,90.31 V 24.18 h 4.97 v 66.13 z"
       fill="#dddddd"
       id="path308" />
    <path
       d="M 166.59,90.31 V 44.63 h 4.96 v 45.68 z"
       fill="#dddddd"
       id="path310" />
    <path
       d="M 171.55,90.31 V 25.54 h 4.96 v 64.77 z"
       fill="#dddddd"
       id="path312" />
    <path
       d="M 176.51,90.31 V 27.59 h 4.96 v 62.72 z"
       fill="#dddddd"
       id="path314" />
    <path
       d="m 181.47,90.31 v -37.5 h 4.96 v 37.5 z"
       fill="#dddddd"
       id="path316" />
    <path
       d="M 186.43,90.31 V 39.18 h 4.96 v 51.13 z"
       fill="#dddddd"
       id="path318" />
    <path
       d="M 191.39,90.31 V 39.18 h 4.96 v 51.13 z"
       fill="#dddddd"
       id="path320" />
    <path
       d="M 196.35,90.31 V 55.54 h 4.96 v 34.77 z"
       fill="#dddddd"
       id="path322" />
    <path
       d="M 201.31,90.31 V 52.13 h 4.97 v 38.18 z"
       fill="#dddddd"
       id="path324" />
    <path
       d="m 206.28,90.31 v -37.5 h 4.96 v 37.5 z"
       fill="#dddddd"
       id="path326" />
    <path
       d="M 211.24,90.31 V 69.85 h 4.96 v 20.46 z"
       fill="#dddddd"
       id="path328" />
    <path
       d="M 216.2,90.31 V 66.45 h 4.96 v 23.86 z"
       fill="#dddddd"
       id="path330" />
    <path
       d="M 221.16,90.31 V 63.04 h 4.96 v 27.27 z"
       fill="#dddddd"
       id="path332" />
    <path
       d="m 226.12,90.31 v -7.5 h 4.96 v 7.5 z"
       fill="#dddddd"
       id="path334" />
    <path
       d="M 231.08,90.31 V 71.22 h 4.96 v 19.09 z"
       fill="#dddddd"
       id="path336" />
    <path
       d="m 236.04,90.31 v -15 h 4.97 v 15 z"
       fill="#dddddd"
       id="path338" />
    <path
       d="m 241.01,90.31 v -5.46 h 4.96 v 5.46 z"
       fill="#dddddd"
       id="path340" />
    <path
       d="M 245.97,90.31 V 76.67 h 4.96 v 13.64 z"
       fill="#dddddd"
       id="path342" />
    <path
       d="m 250.93,90.31 v -8.87 h 4.96 v 8.87 z"
       fill="#dddddd"
       id="path344" />
    <path
       d="m 255.89,90.31 v -8.87 h 4.96 v 8.87 z"
       fill="#dddddd"
       id="path346" />
    <path
       d="m 260.85,90.31 v -6.14 h 4.96 v 6.14 z"
       fill="#dddddd"
       id="path348" />
    <path
       d="m 265.81,90.31 v -8.87 h 4.96 v 8.87 z"
       fill="#dddddd"
       id="path350" />
    <path
       d="m 270.77,90.31 v -7.5 h 4.97 v 7.5 z"
       fill="#dddddd"
       id="path352" />
    <path
       d="m 275.74,90.31 v -7.5 h 4.96 v 7.5 z"
       fill="#dddddd"
       id="path354" />
    <path
       d="m 280.7,90.31 v -8.87 h 4.96 v 8.87 z"
       fill="#dddddd"
       id="path356" />
    <path
       d="m 285.66,90.31 v -4.09 h 4.96 v 4.09 z"
       fill="#dddddd"
       id="path358" />
    <path
       d="m 290.62,90.31 v -6.14 h 4.96 v 6.14 z"
       fill="#dddddd"
       id="path360" />
    <path
       d="M 295.58,90.31 V 86.9 h 4.96 v 3.41 z"
       fill="#dddddd"
       id="path362" />
    <path
       d="m 300.54,90.31 v -2.73 h 4.96 v 2.73 z"
       fill="#dddddd"
       id="path364" />
    <path
       d="m 305.5,90.31 v -5.46 h 4.97 v 5.46 z"
       fill="#dddddd"
       id="path366" />
    <path
       d="m 310.47,90.31 v -2.73 h 4.96 v 2.73 z"
       fill="#dddddd"
       id="path368" />
    <path
       d="m 315.43,90.31 v -0.69 h 4.96 v 0.69 z"
       fill="#dddddd"
       id="path370" />
    <path
       d="m 320.39,90.31 v -2.73 h 4.96 v 2.73 z"
       fill="#dddddd"
       id="path372" />
    <path
       d="m 325.35,90.31 v -4.78 h 4.96 v 4.78 z"
       fill="#dddddd"
       id="path374" />
    <path
       d="m 330.31,90.31 v -1.37 h 4.96 v 1.37 z"
       fill="#dddddd"
       id="path376" />
    <path
       d="m 335.27,90.31 v -2.73 h 4.96 v 2.73 z"
       fill="#dddddd"
       id="path378" />
    <path
       d="m 340.23,90.31 v -4.09 h 4.97 v 4.09 z"
       fill="#dddddd"
       id="path380" />
    <path
       d="m 345.2,90.31 v -1.37 h 4.96 v 1.37 z"
       fill="#dddddd"
       id="path382" />
    <path
       d="m 350.16,90.31 v -2.05 h 4.96 v 2.05 z"
       fill="#dddddd"
       id="path384" />
    <path
       d="m 355.12,90.31 v -1.37 h 4.96 v 1.37 z"
       fill="#dddddd"
       id="path386" />
    <path
       d="m 360.08,90.31 v -1.37 h 4.96 v 1.37 z"
       fill="#dddddd"
       id="path388" />
    <path
       d="M 365.04,90.31 V 89.62 H 370 v 0.69 z"
       fill="#dddddd"
       id="path390" />
    <path
       d="m 370,90.31 v -2.05 h 4.96 v 2.05 z"
       fill="#dddddd"
       id="path392" />
    <path
       d="m 374.96,90.31 v -2.05 h 4.97 v 2.05 z"
       fill="#dddddd"
       id="path394" />
    <path
       d="m 379.93,90.31 v -0.69 h 4.96 v 0.69 z"
       fill="#dddddd"
       id="path396" />
    <path
       d="m 384.89,90.31 v -2.05 h 4.96 v 2.05 z"
       fill="#dddddd"
       id="path398" />
    <path
       d="m 389.85,90.31 v -0.69 h 4.96 v 0.69 z"
       fill="#dddddd"
       id="path400" />
    <path
       d="m 399.77,90.31 v -0.69 h 4.96 v 0.69 z"
       fill="#dddddd"
       id="path402" />
    <path
       d="m 409.69,90.31 v -0.69 h 4.97 v 0.69 z"
       fill="#dddddd"
       id="path404" />
    <path
       d="m 414.66,90.31 v -1.37 h 4.96 v 1.37 z"
       fill="#dddddd"
       id="path406" />
    <path
       d="m 419.62,90.31 v -0.69 h 4.96 v 0.69 z"
       fill="#dddddd"
       id="path408" />
    <path
       d="m 429.54,90.31 v -0.69 h 4.96 v 0.69 z"
       fill="#dddddd"
       id="path410" />
    <path
       d="m 434.5,90.31 v -0.69 h 4.96 v 0.69 z"
       fill="#dddddd"
       id="path412" />
    <path
       d="m 439.46,90.31 v -0.69 h 4.96 v 0.69 z"
       fill="#dddddd"
       id="path414" />
    <path
       d="m 444.42,90.31 v -0.69 h 4.97 v 0.69 z"
       fill="#dddddd"
       id="path416" />
    <path
       d="m 449.39,90.31 v -1.37 h 4.96 v 1.37 z"
       fill="#dddddd"
       id="path418" />
    <path
       d="m 464.27,90.31 v -0.69 h 4.96 v 0.69 z"
       fill="#dddddd"
       id="path420" />
    <path
       d="M 494.04,90.31 V 89.62 H 499 v 0.69 z"
       fill="#dddddd"
       id="path422" />
  </g>
  <g
     id="layer6"
     transform="matrix(0.99816338,0,0,1,23.001837,2.2)">
    <path
       d="M 2.86,100.23 H 1 v -9.92 h 1.86 z"
       fill="#f2f0f7"
       id="path425" />
    <path
       d="m 1,100.23 v -9.92 h 37.16 v 9.92 z"
       fill="#dadaeb"
       id="path427" />
    <path
       d="m 38.16,100.23 v -9.92 h 37.17 v 9.92 z"
       fill="#bcbddc"
       id="path429" />
    <path
       d="m 75.33,100.23 v -9.92 h 37.16 v 9.92 z"
       fill="#9e9ac8"
       id="path431" />
    <path
       d="m 112.49,100.23 v -9.92 h 37.17 v 9.92 z"
       fill="#756bb1"
       id="path433" />
    <path
       d="M 149.66,100.23 V 90.31 H 499 v 9.92 z"
       fill="#54278f"
       id="path435" />
    <g
       id="g437" />
  </g>
  <g
     id="layer7"
     fill="none"
     stroke="#000000"
     stroke-width="1"
     transform="matrix(0.99816338,0,0,1,23.001837,2.2)">
    <path
       d="m 2.86,90.31 v 15.87"
       stroke="rgba(0,0,0,0.3)"
       id="path440" />
    <path
       d="m 38.16,90.31 v 15.87"
       stroke="rgba(0,0,0,0.3)"
       id="path444" />
    <path
       d="m 75.33,90.31 v 15.87"
       stroke="rgba(0,0,0,0.3)"
       id="path446" />
    <path
       d="m 112.49,90.31 v 15.87"
       stroke="rgba(0,0,0,0.3)"
       id="path448" />
    <path
       d="m 149.66,90.31 v 15.87"
       stroke="rgba(0,0,0,0.3)"
       id="path450" />
    <path
       d="m 499,90.31 v 15.87"
       stroke="rgba(0,0,0,0.3)"
       id="path452" />
  </g>
  <g
     id="layer8"
     font-family="sans-serif"
     font-size="12px"
     text-anchor="middle">
    <text
       y="120.83624"
       x="24.02207"
       font-family="sans-serif"
       font-size="12.9881px"
       text-anchor="start"
       fill="#555555"
       id="text457"
       transform="scale(0.99908125,1.0009196)"
       style="stroke-width:0.999081">2</text>
    <text
       y="121.26949"
       x="61.152126"
       font-family="sans-serif"
       font-size="12.9881px"
       text-anchor="middle"
       fill="#555555"
       id="text459"
       transform="scale(0.99908125,1.0009196)"
       style="stroke-width:0.999081">4</text>
    <text
       y="121.26949"
       x="98.282181"
       font-family="sans-serif"
       font-size="12.9881px"
       text-anchor="middle"
       fill="#555555"
       id="text461"
       transform="scale(0.99908125,1.0009196)"
       style="stroke-width:0.999081">6</text>
    <text
       y="121.26949"
       x="135.41216"
       font-family="sans-serif"
       font-size="12.9881px"
       text-anchor="middle"
       fill="#555555"
       id="text463"
       transform="scale(0.99908125,1.0009196)"
       style="stroke-width:0.999081">8</text>
    <text
       y="121.26949"
       x="172.54221"
       font-family="sans-serif"
       font-size="12.9881px"
       text-anchor="middle"
       fill="#555555"
       id="text465"
       transform="scale(0.99908125,1.0009196)"
       style="stroke-width:0.999081">10</text>
    <text
       y="121.26949"
       x="521.56451"
       font-family="sans-serif"
       font-size="12.9881px"
       text-anchor="end"
       fill="#555555"
       id="text467"
       transform="scale(0.99908125,1.0009196)"
       style="stroke-width:0.999081">28.8</text>
    <text
       xml:space="preserve"
       style="font-weight:bold;font-size:17.2896px;line-height:1.25;font-family:Helvetica;-inkscape-font-specification:'Helvetica Bold';letter-spacing:0px;word-spacing:0px;stroke-width:0.997479"
       x="407.0871"
       y="31.52191"
       id="text240"
       transform="scale(0.99747888,1.0025275)"><tspan
         sodipodi:role="line"
         id="tspan238"
         x="409.48468"
         y="31.52191"
         style="font-style:normal;font-variant:normal;font-weight:normal;font-stretch:normal;font-family:Arial;-inkscape-font-specification:Arial;stroke-width:0.997479">Unimployment Rate(%), 2010 </tspan></text>
  </g>
</svg>
