<?xml version="1.0" encoding="UTF-8" standalone="no"?>
<svg
   xmlns:dc="http://purl.org/dc/elements/1.1/"
   xmlns:cc="http://creativecommons.org/ns#"
   xmlns:rdf="http://www.w3.org/1999/02/22-rdf-syntax-ns#"
   xmlns:svg="http://www.w3.org/2000/svg"
   xmlns="http://www.w3.org/2000/svg"
   xmlns:sodipodi="http://sodipodi.sourceforge.net/DTD/sodipodi-0.dtd"
   xmlns:inkscape="http://www.inkscape.org/namespaces/inkscape"
   version="1.2"
   width="570"
   height="125"
   viewBox="0 0 570 125"
   stroke-linecap="butt"
   stroke-linejoin="round"
   id="svg234"
   sodipodi:docname="dataviz-key_2000.svg"
   inkscape:version="1.0.2 (e86c8708, 2021-01-15)">
  <metadata
     id="metadata240">
    <rdf:RDF>
      <cc:Work
         rdf:about="">
        <dc:format>image/svg+xml</dc:format>
        <dc:type
           rdf:resource="http://purl.org/dc/dcmitype/StillImage" />
        <dc:title></dc:title>
      </cc:Work>
    </rdf:RDF>
  </metadata>
  <defs
     id="defs238" />
  <sodipodi:namedview
     pagecolor="#ffffff"
     bordercolor="#666666"
     borderopacity="1"
     objecttolerance="10"
     gridtolerance="10"
     guidetolerance="10"
     inkscape:pageopacity="0"
     inkscape:pageshadow="2"
     inkscape:window-width="1087"
     inkscape:window-height="775"
     id="namedview236"
     showgrid="false"
     inkscape:zoom="0.94214265"
     inkscape:cx="193.99706"
     inkscape:cy="92.952301"
     inkscape:window-x="165"
     inkscape:window-y="23"
     inkscape:window-maximized="0"
     inkscape:current-layer="layer12"
     inkscape:document-rotation="0" />
  <style
     id="style10">
  path {shape-rendering: crispEdges;}
</style>
  <g
     id="layer9"
     transform="matrix(1.0020052,0,0,1,23.498893,2.2)">
    <path
       d="m 1,90.64 v -1.8 h 4.98 v 1.8 z"
       fill="#dddddd"
       id="path12" />
    <path
       d="m 5.98,90.64 v -6.76 h 4.98 v 6.76 z"
       fill="#dddddd"
       id="path14" />
    <path
       d="m 10.96,90.64 v -6.31 h 4.98 v 6.31 z"
       fill="#dddddd"
       id="path16" />
    <path
       d="M 15.94,90.64 V 77.58 h 4.98 v 13.06 z"
       fill="#dddddd"
       id="path18" />
    <path
       d="M 20.92,90.64 V 64.51 h 4.98 v 26.13 z"
       fill="#dddddd"
       id="path20" />
    <path
       d="M 25.9,90.64 V 69.92 h 4.98 v 20.72 z"
       fill="#dddddd"
       id="path22" />
    <path
       d="M 30.88,90.64 V 41.99 h 4.98 v 48.65 z"
       fill="#dddddd"
       id="path24" />
    <path
       d="M 35.86,90.64 V 59.11 h 4.98 v 31.53 z"
       fill="#dddddd"
       id="path26" />
    <path
       d="M 40.84,90.64 V 21.27 h 4.98 v 69.37 z"
       fill="#dddddd"
       id="path28" />
    <path
       d="M 45.82,90.64 V 17.67 h 4.98 v 72.97 z"
       fill="#dddddd"
       id="path30" />
    <path
       d="M 50.8,90.64 V 56.86 h 4.98 v 33.78 z"
       fill="#dddddd"
       id="path32" />
    <path
       d="M 55.78,90.64 V 16.77 h 4.98 v 73.87 z"
       fill="#dddddd"
       id="path34" />
    <path
       d="M 60.76,90.64 V 46.95 h 4.98 v 43.69 z"
       fill="#dddddd"
       id="path36" />
    <path
       d="M 65.74,90.64 V 1 h 4.98 v 89.64 z"
       fill="#dddddd"
       id="path38" />
    <path
       d="M 70.72,90.64 V 5.05 h 4.98 v 85.59 z"
       fill="#dddddd"
       id="path40" />
    <path
       d="M 75.7,90.64 V 51.45 h 4.98 v 39.19 z"
       fill="#dddddd"
       id="path42" />
    <path
       d="M 80.68,90.64 V 18.57 h 4.98 v 72.07 z"
       fill="#dddddd"
       id="path44" />
    <path
       d="M 85.66,90.64 V 48.3 h 4.98 v 42.34 z"
       fill="#dddddd"
       id="path46" />
    <path
       d="M 90.64,90.64 V 19.92 h 4.98 v 70.72 z"
       fill="#dddddd"
       id="path48" />
    <path
       d="M 95.62,90.64 V 27.13 h 4.98 v 63.51 z"
       fill="#dddddd"
       id="path50" />
    <path
       d="M 100.6,90.64 V 55.96 h 4.98 v 34.68 z"
       fill="#dddddd"
       id="path52" />
    <path
       d="M 105.58,90.64 V 32.98 h 4.98 v 57.66 z"
       fill="#dddddd"
       id="path54" />
    <path
       d="M 110.56,90.64 V 38.39 h 4.98 v 52.25 z"
       fill="#dddddd"
       id="path56" />
    <path
       d="M 115.54,90.64 V 68.57 h 4.98 v 22.07 z"
       fill="#dddddd"
       id="path58" />
    <path
       d="M 120.52,90.64 V 47.85 h 4.98 v 42.79 z"
       fill="#dddddd"
       id="path60" />
    <path
       d="M 125.5,90.64 V 69.47 h 4.98 v 21.17 z"
       fill="#dddddd"
       id="path62" />
    <path
       d="M 130.48,90.64 V 55.05 h 4.98 v 35.59 z"
       fill="#dddddd"
       id="path64" />
    <path
       d="M 135.46,90.64 V 54.15 h 4.98 v 36.49 z"
       fill="#dddddd"
       id="path66" />
    <path
       d="M 140.44,90.64 V 78.03 h 4.98 v 12.61 z"
       fill="#dddddd"
       id="path68" />
    <path
       d="M 145.42,90.64 V 71.27 h 4.98 v 19.37 z"
       fill="#dddddd"
       id="path70" />
    <path
       d="M 150.4,90.64 V 78.93 h 4.98 v 11.71 z"
       fill="#dddddd"
       id="path72" />
    <path
       d="M 155.38,90.64 V 72.17 h 4.98 v 18.47 z"
       fill="#dddddd"
       id="path74" />
    <path
       d="M 160.36,90.64 V 73.97 h 4.98 v 16.67 z"
       fill="#dddddd"
       id="path76" />
    <path
       d="m 165.34,90.64 v -8.11 h 4.98 v 8.11 z"
       fill="#dddddd"
       id="path78" />
    <path
       d="M 170.32,90.64 V 77.13 h 4.98 v 13.51 z"
       fill="#dddddd"
       id="path80" />
    <path
       d="m 175.3,90.64 v -4.5 h 4.98 v 4.5 z"
       fill="#dddddd"
       id="path82" />
    <path
       d="M 180.28,90.64 V 75.78 h 4.98 v 14.86 z"
       fill="#dddddd"
       id="path84" />
    <path
       d="M 185.26,90.64 V 79.83 h 4.98 v 10.81 z"
       fill="#dddddd"
       id="path86" />
    <path
       d="m 190.24,90.64 v -5.41 h 4.98 v 5.41 z"
       fill="#dddddd"
       id="path88" />
    <path
       d="m 195.22,90.64 v -8.56 h 4.98 v 8.56 z"
       fill="#dddddd"
       id="path90" />
    <path
       d="m 200.2,90.64 v -7.66 h 4.98 v 7.66 z"
       fill="#dddddd"
       id="path92" />
    <path
       d="m 205.18,90.64 v -4.05 h 4.98 v 4.05 z"
       fill="#dddddd"
       id="path94" />
    <path
       d="m 210.16,90.64 v -6.31 h 4.98 v 6.31 z"
       fill="#dddddd"
       id="path96" />
    <path
       d="m 215.14,90.64 v -4.05 h 4.98 v 4.05 z"
       fill="#dddddd"
       id="path98" />
    <path
       d="m 220.12,90.64 v -5.86 h 4.98 v 5.86 z"
       fill="#dddddd"
       id="path100" />
    <path
       d="m 225.1,90.64 v -4.5 h 4.98 v 4.5 z"
       fill="#dddddd"
       id="path102" />
    <path
       d="m 230.08,90.64 v -0.9 h 4.98 v 0.9 z"
       fill="#dddddd"
       id="path104" />
    <path
       d="m 235.06,90.64 v -5.41 h 4.98 v 5.41 z"
       fill="#dddddd"
       id="path106" />
    <path
       d="m 240.04,90.64 v -0.9 h 4.98 v 0.9 z"
       fill="#dddddd"
       id="path108" />
    <path
       d="m 245.02,90.64 v -2.7 H 250 v 2.7 z"
       fill="#dddddd"
       id="path110" />
    <path
       d="m 250,90.64 v -3.15 h 4.98 v 3.15 z"
       fill="#dddddd"
       id="path112" />
    <path
       d="m 254.98,90.64 v -0.9 h 4.98 v 0.9 z"
       fill="#dddddd"
       id="path114" />
    <path
       d="m 259.96,90.64 v -3.15 h 4.98 v 3.15 z"
       fill="#dddddd"
       id="path116" />
    <path
       d="m 264.94,90.64 v -1.35 h 4.98 v 1.35 z"
       fill="#dddddd"
       id="path118" />
    <path
       d="m 269.92,90.64 v -0.45 h 4.98 v 0.45 z"
       fill="#dddddd"
       id="path120" />
    <path
       d="m 274.9,90.64 v -1.8 h 4.98 v 1.8 z"
       fill="#dddddd"
       id="path122" />
    <path
       d="m 279.88,90.64 v -2.25 h 4.98 v 2.25 z"
       fill="#dddddd"
       id="path124" />
    <path
       d="m 284.86,90.64 v -0.9 h 4.98 v 0.9 z"
       fill="#dddddd"
       id="path126" />
    <path
       d="m 294.82,90.64 v -1.35 h 4.98 v 1.35 z"
       fill="#dddddd"
       id="path128" />
    <path
       d="m 299.8,90.64 v -1.8 h 4.98 v 1.8 z"
       fill="#dddddd"
       id="path130" />
    <path
       d="m 309.76,90.64 v -1.35 h 4.98 v 1.35 z"
       fill="#dddddd"
       id="path132" />
    <path
       d="m 314.74,90.64 v -3.15 h 4.98 v 3.15 z"
       fill="#dddddd"
       id="path134" />
    <path
       d="m 319.72,90.64 v -0.9 h 4.98 v 0.9 z"
       fill="#dddddd"
       id="path136" />
    <path
       d="m 324.7,90.64 v -1.35 h 4.98 v 1.35 z"
       fill="#dddddd"
       id="path138" />
    <path
       d="m 329.68,90.64 v -0.45 h 4.98 v 0.45 z"
       fill="#dddddd"
       id="path140" />
    <path
       d="m 334.66,90.64 v -3.6 h 4.98 v 3.6 z"
       fill="#dddddd"
       id="path142" />
    <path
       d="m 339.64,90.64 v -2.25 h 4.98 v 2.25 z"
       fill="#dddddd"
       id="path144" />
    <path
       d="m 344.62,90.64 v -0.45 h 4.98 v 0.45 z"
       fill="#dddddd"
       id="path146" />
    <path
       d="m 349.6,90.64 v -1.35 h 4.98 v 1.35 z"
       fill="#dddddd"
       id="path148" />
    <path
       d="m 354.58,90.64 v -1.35 h 4.98 v 1.35 z"
       fill="#dddddd"
       id="path150" />
    <path
       d="m 359.56,90.64 v -1.8 h 4.98 v 1.8 z"
       fill="#dddddd"
       id="path152" />
    <path
       d="m 364.54,90.64 v -1.35 h 4.98 v 1.35 z"
       fill="#dddddd"
       id="path154" />
    <path
       d="m 369.52,90.64 v -0.9 h 4.98 v 0.9 z"
       fill="#dddddd"
       id="path156" />
    <path
       d="m 374.5,90.64 v -0.45 h 4.98 v 0.45 z"
       fill="#dddddd"
       id="path158" />
    <path
       d="m 384.46,90.64 v -0.9 h 4.98 v 0.9 z"
       fill="#dddddd"
       id="path160" />
    <path
       d="m 389.44,90.64 v -0.9 h 4.98 v 0.9 z"
       fill="#dddddd"
       id="path162" />
    <path
       d="m 394.42,90.64 v -0.45 h 4.98 v 0.45 z"
       fill="#dddddd"
       id="path164" />
    <path
       d="m 399.4,90.64 v -0.9 h 4.98 v 0.9 z"
       fill="#dddddd"
       id="path166" />
    <path
       d="m 404.38,90.64 v -0.9 h 4.98 v 0.9 z"
       fill="#dddddd"
       id="path168" />
    <path
       d="m 414.34,90.64 v -0.45 h 4.98 v 0.45 z"
       fill="#dddddd"
       id="path170" />
    <path
       d="m 424.3,90.64 v -0.45 h 4.98 v 0.45 z"
       fill="#dddddd"
       id="path172" />
    <path
       d="m 429.28,90.64 v -0.45 h 4.98 v 0.45 z"
       fill="#dddddd"
       id="path174" />
    <path
       d="m 434.26,90.64 v -0.45 h 4.98 v 0.45 z"
       fill="#dddddd"
       id="path176" />
    <path
       d="m 439.24,90.64 v -0.45 h 4.98 v 0.45 z"
       fill="#dddddd"
       id="path178" />
    <path
       d="m 444.22,90.64 v -0.45 h 4.98 v 0.45 z"
       fill="#dddddd"
       id="path180" />
    <path
       d="m 464.14,90.64 v -0.9 h 4.98 v 0.9 z"
       fill="#dddddd"
       id="path182" />
    <path
       d="m 469.12,90.64 v -0.45 h 4.98 v 0.45 z"
       fill="#dddddd"
       id="path184" />
    <path
       d="M 494.02,90.64 V 90.19 H 499 v 0.45 z"
       fill="#dddddd"
       id="path186" />
  </g>
  <g
     id="layer10"
     transform="matrix(1.0020052,0,0,1,23.498893,2.2)">
    <path
       d="m 1,100.6 v -9.96 h 18.56 v 9.96 z"
       fill="#f2f0f7"
       id="path189" />
    <path
       d="m 19.56,100.6 v -9.96 h 61.86 v 9.96 z"
       fill="#dadaeb"
       id="path191" />
    <path
       d="m 81.42,100.6 v -9.96 h 61.87 v 9.96 z"
       fill="#bcbddc"
       id="path193" />
    <path
       d="m 143.29,100.6 v -9.96 h 61.86 v 9.96 z"
       fill="#9e9ac8"
       id="path195" />
    <path
       d="m 205.15,100.6 v -9.96 h 61.86 v 9.96 z"
       fill="#756bb1"
       id="path197" />
    <path
       d="M 267.01,100.6 V 90.64 H 499 v 9.96 z"
       fill="#54278f"
       id="path199" />
    <g
       id="g201" />
  </g>
  <g
     id="layer11"
     fill="none"
     stroke="#000000"
     stroke-width="1"
     transform="matrix(1.0020052,0,0,1,23.498893,2.2)">
    <path
       d="m 1,90.64 v 15.94"
       stroke="rgba(0,0,0,0.3)"
       id="path204" />
    <path
       d="m 19.56,90.64 v 15.94"
       stroke="rgba(0,0,0,0.3)"
       id="path206" />
    <path
       d="m 81.42,90.64 v 15.94"
       stroke="rgba(0,0,0,0.3)"
       id="path208" />
    <path
       d="m 143.29,90.64 v 15.94"
       stroke="rgba(0,0,0,0.3)"
       id="path210" />
    <path
       d="m 205.15,90.64 v 15.94"
       stroke="rgba(0,0,0,0.3)"
       id="path212" />
    <path
       d="m 267.01,90.64 v 15.94"
       stroke="rgba(0,0,0,0.3)"
       id="path214" />
    <path
       d="m 499,90.64 v 15.94"
       stroke="rgba(0,0,0,0.3)"
       id="path216" />
  </g>
  <g
     id="layer12"
     font-family="sans-serif"
     font-size="12px"
     text-anchor="middle">
    <text
       y="121.83524"
       x="22.313591"
       font-family="sans-serif"
       font-size="13.013px"
       text-anchor="start"
       fill="#555555"
       id="text219"
       style="word-spacing:0px;stroke-width:1.001"
       transform="scale(1.0010021,0.99899889)">1</text>
    <text
       y="121.94567"
       x="43.922142"
       font-family="sans-serif"
       font-size="13.013px"
       text-anchor="middle"
       fill="#555555"
       id="text221"
       transform="scale(1.0010021,0.99899889)"
       style="stroke-width:1.001">2</text>
    <text
       y="121.94568"
       x="104.97936"
       font-family="sans-serif"
       font-size="13.013px"
       text-anchor="middle"
       fill="#555555"
       id="text223"
       transform="scale(1.0010021,0.99899889)"
       style="stroke-width:1.001">4</text>
    <text
       y="121.94568"
       x="166.90466"
       font-family="sans-serif"
       font-size="13.013px"
       text-anchor="middle"
       fill="#555555"
       id="text225"
       transform="scale(1.0010021,0.99899889)"
       style="stroke-width:1.001">6</text>
    <text
       y="121.94568"
       x="228.83006"
       font-family="sans-serif"
       font-size="13.013px"
       text-anchor="middle"
       fill="#555555"
       id="text227"
       transform="scale(1.0010021,0.99899889)"
       style="stroke-width:1.001">8</text>
    <text
       y="121.94568"
       x="290.75534"
       font-family="sans-serif"
       font-size="13.013px"
       text-anchor="middle"
       fill="#555555"
       id="text229"
       transform="scale(1.0010021,0.99899889)"
       style="stroke-width:1.001">10</text>
    <text
       y="121.94568"
       x="522.9754"
       font-family="sans-serif"
       font-size="13.013px"
       text-anchor="end"
       fill="#555555"
       id="text231"
       transform="scale(1.0010021,0.99899889)"
       style="stroke-width:1.001">17.5</text>
    <text
       xml:space="preserve"
       style="font-weight:bold;font-size:17.2896px;line-height:1.25;font-family:Helvetica;-inkscape-font-specification:'Helvetica Bold';letter-spacing:0px;word-spacing:0px;stroke-width:0.997479"
       x="411.12442"
       y="34.118923"
       id="text240"
       transform="scale(0.99747888,1.0025275)"><tspan
         sodipodi:role="line"
         id="tspan238"
         x="411.12442"
         y="34.118923"
         style="font-style:normal;font-variant:normal;font-weight:normal;font-stretch:normal;font-family:Arial;-inkscape-font-specification:Arial;stroke-width:0.997479">Unimployment Rate(%), 2000</tspan></text>
  </g>
</svg>
